<svg width="80" height="40" viewBox="0 0 80 40" fill="none" xmlns="http://www.w3.org/2000/svg">
<rect x="-24" y="-57" width="375" height="812" rx="8" fill="white"/>
<path d="M4.08 16V10.24C4.08 9.16 4.76 8.3 5.92 8.3C7.12 8.3 7.66 9.1 7.66 10.16V16H10.3V10.24C10.3 9.18 10.98 8.3 12.12 8.3C13.34 8.3 13.86 9.1 13.86 10.16V16H16.44V9.62C16.44 6.98 14.7 5.88 12.88 5.88C11.58 5.88 10.54 6.32 9.76 7.52C9.26 6.46 8.18 5.88 6.84 5.88C5.76 5.88 4.5 6.4 3.96 7.36V6.16H1.42V16H4.08ZM21.9948 16V6.16H19.3348V16H21.9948ZM19.0148 2.94C19.0148 3.82 19.7548 4.56 20.6548 4.56C21.5748 4.56 22.2948 3.82 22.2948 2.94C22.2948 2.02 21.5748 1.28 20.6548 1.28C19.7548 1.28 19.0148 2.02 19.0148 2.94ZM29.4627 8.32C30.7827 8.32 31.4027 9.16 31.6427 9.98L34.0227 9.18C33.6027 7.52 32.0827 5.86 29.4027 5.86C26.5427 5.86 24.3027 8.04 24.3027 11.08C24.3027 14.1 26.5827 16.3 29.4827 16.3C32.1027 16.3 33.6427 14.62 34.0827 12.98L31.7427 12.2C31.5227 12.96 30.8427 13.86 29.4827 13.86C28.1227 13.86 26.9627 12.86 26.9627 11.08C26.9627 9.3 28.1027 8.32 29.4627 8.32ZM38.8987 10.22C38.9587 9.14 39.6187 8.3 40.7387 8.3C42.0187 8.3 42.5587 9.16 42.5587 10.26V16H45.2187V9.8C45.2187 7.64 44.0587 5.9 41.5587 5.9C40.6187 5.9 39.5387 6.22 38.8987 6.98V1.52H36.2387V16H38.8987V10.22ZM50.0584 9.96C50.1184 9.06 50.8784 8.02 52.2584 8.02C53.7784 8.02 54.4184 8.98 54.4584 9.96H50.0584ZM54.7184 12.52C54.3984 13.4 53.7184 14.02 52.4784 14.02C51.1584 14.02 50.0584 13.08 49.9984 11.78H57.0384C57.0384 11.74 57.0784 11.34 57.0784 10.96C57.0784 7.8 55.2584 5.86 52.2184 5.86C49.6984 5.86 47.3784 7.9 47.3784 11.04C47.3784 14.36 49.7584 16.3 52.4584 16.3C54.8784 16.3 56.4384 14.88 56.9384 13.18L54.7184 12.52ZM62.0331 16V1.52H59.3731V16H62.0331ZM67.7409 16V1.52H65.0809V16H67.7409ZM72.7288 9.96C72.7888 9.06 73.5488 8.02 74.9288 8.02C76.4488 8.02 77.0888 8.98 77.1288 9.96H72.7288ZM77.3888 12.52C77.0688 13.4 76.3888 14.02 75.1488 14.02C73.8288 14.02 72.7288 13.08 72.6688 11.78H79.7088C79.7088 11.74 79.7488 11.34 79.7488 10.96C79.7488 7.8 77.9288 5.86 74.8888 5.86C72.3688 5.86 70.0488 7.9 70.0488 11.04C70.0488 14.36 72.4288 16.3 75.1288 16.3C77.5488 16.3 79.1088 14.88 79.6088 13.18L77.3888 12.52ZM10.96 28.16H7.48L4.08 31.82V23.52H1.42V38H4.08V35.4L5.18 34.24L7.78 38H11.04L7.02 32.3L10.96 28.16ZM18.3719 28.16L16.2319 34.48L14.4119 28.16H11.6119L14.7519 38H17.4519L19.7119 31.28L22.0119 38H24.6719L27.7519 28.16H25.1119L23.2919 34.5L21.1719 28.16H18.3719ZM33.7791 35.88C32.4791 35.88 31.2791 34.92 31.2791 33.08C31.2791 31.22 32.4791 30.28 33.7791 30.28C35.0791 30.28 36.2791 31.22 36.2791 33.08C36.2791 34.94 35.0791 35.88 33.7791 35.88ZM33.7791 27.86C30.8391 27.86 28.6191 30.04 28.6191 33.08C28.6191 36.1 30.8391 38.3 33.7791 38.3C36.7191 38.3 38.9391 36.1 38.9391 33.08C38.9391 30.04 36.7191 27.86 33.7791 27.86ZM43.8987 32.34C43.8987 31.2 44.5787 30.3 45.7387 30.3C47.0187 30.3 47.5587 31.16 47.5587 32.26V38H50.2187V31.8C50.2187 29.64 49.0987 27.9 46.6587 27.9C45.5987 27.9 44.4187 28.36 43.8187 29.38V28.16H41.2387V38H43.8987V32.34Z" fill="#FF0066"/>
</svg>
